<svg xmlns="http://www.w3.org/2000/svg" width="14" height="14" fill="none"><path fill="#fff" d="M13.334 5.36a6.343 6.343 0 0 1 0 3.276 6.226 6.226 0 0 1-1.654 2.863 6.22 6.22 0 0 1-2.861 1.656 6.328 6.328 0 0 1-3.274 0 6.222 6.222 0 0 1-2.861-1.656 6.229 6.229 0 0 1-1.655-2.863 6.343 6.343 0 0 1 0-3.276 6.228 6.228 0 0 1 1.655-2.863A6.222 6.222 0 0 1 5.544.841a6.328 6.328 0 0 1 3.275 0 6.222 6.222 0 0 1 2.86 1.656 6.228 6.228 0 0 1 1.655 2.863Zm-2.31 5.483c.968-.97 1.493-2.136 1.575-3.5l-.176-.028a3.592 3.592 0 0 0-.456-.018 5.32 5.32 0 0 0-.718.05 7.261 7.261 0 0 0-.925.205c-.373.104-.745.24-1.116.407.379 1.278.644 2.505.797 3.68.382-.234.722-.5 1.019-.796Zm-4.469 1.553a5.355 5.355 0 0 0 2.46-.282A28.549 28.549 0 0 0 8.23 8.47a19.65 19.65 0 0 0-4.017 3.083 5.368 5.368 0 0 0 2.342.844ZM2.212 9.199c.268.611.644 1.16 1.128 1.644.054.054.097.093.129.117 1.413-1.415 2.908-2.548 4.486-3.4a14.4 14.4 0 0 0-.34-.96.67.67 0 0 0-.102.05 5.182 5.182 0 0 0-.097.055l-.293.14a6.366 6.366 0 0 1-.864.303c-.373.107-.785.204-1.238.29a7.395 7.395 0 0 1-1.564.105 6.938 6.938 0 0 1-1.699-.252c.036.66.187 1.296.454 1.908ZM3.34 3.153c-.914.915-1.437 2.024-1.57 3.33l.024-.153a4.43 4.43 0 0 0 1.47.264 7.195 7.195 0 0 0 1.438-.097c.415-.076.843-.184 1.282-.322.44-.14.732-.24.878-.305l.35-.155.017-.006.011-.012a22.41 22.41 0 0 0-2.096-3.739A5.43 5.43 0 0 0 3.34 3.153Zm4.999-1.468a5.424 5.424 0 0 0-2.194-.026 23.356 23.356 0 0 1 1.997 3.499c.898-.657 1.64-1.512 2.226-2.567a5.358 5.358 0 0 0-2.03-.906Zm2.679 1.58a6.891 6.891 0 0 1-.12.173l-.18.249c-.07.097-.15.204-.242.32a15.933 15.933 0 0 1-.65.761 13.045 13.045 0 0 1-.838.832 7.152 7.152 0 0 1-.477.396.984.984 0 0 0 .053.14c.027.063.049.11.064.141.09.238.19.51.299.815.379-.16.761-.291 1.148-.393.386-.101.708-.17.966-.205.258-.035.515-.056.77-.061.256-.006.428-.004.516.005.088.01.173.02.255.033h.011a5.318 5.318 0 0 0-1.528-3.277l-.047.07Z"/></svg>