<svg xmlns="http://www.w3.org/2000/svg" width="24" height="24" fill="none"><path fill="#26A4FF" d="m8.468 8.395-.002.001-.003.002.005-.003Zm9.954-.187a1.24 1.24 0 0 0-.23-.175 1 1 0 0 0-1.4.411 5.782 5.782 0 0 1-1.398 1.778 8.714 8.714 0 0 0-4.267-9.092 1 1 0 0 0-1.49.806 7.017 7.017 0 0 1-2.472 4.942l-.23.187a8.513 8.513 0 0 0-1.988 1.863 8.984 8.984 0 0 0 3.656 13.908 1 1 0 0 0 1.327-1.238 6.977 6.977 0 0 1-.19-2.581 9.003 9.003 0 0 0 4.313 4.016c.225.101.48.115.715.038a8.995 8.995 0 0 0 3.654-14.863Zm-3.905 12.831a6.965 6.965 0 0 1-3.576-4.402 8.886 8.886 0 0 1-.18-.964 1 1 0 0 0-1.858-.362 8.959 8.959 0 0 0-1.205 4.717 6.986 6.986 0 0 1-1.176-9.868 6.555 6.555 0 0 1 1.562-1.458.744.744 0 0 0 .075-.054s.296-.246.307-.252a8.968 8.968 0 0 0 2.898-4.632 6.736 6.736 0 0 1 1.386 8.088 1.001 1.001 0 0 0 1.184 1.418 7.855 7.855 0 0 0 3.862-2.688 7.002 7.002 0 0 1-3.279 10.457Z"/></svg>