<svg xmlns="http://www.w3.org/2000/svg" width="42" height="42" fill="none"><path fill="#4640DE" stroke="#4640DE" d="M39.938 4.198a3.494 3.494 0 0 0-2.545-.996c-1.888.049-3.424 1.649-3.424 3.567v8.899a3.52 3.52 0 0 0-3.658.828l-8.77 8.77a5.914 5.914 0 0 0-.54.624 5.94 5.94 0 0 0-.542-.624l-8.77-8.77a3.52 3.52 0 0 0-3.658-.828V6.716c0-.956-.377-1.85-1.062-2.518a3.493 3.493 0 0 0-2.545-.996C2.536 3.25 1 4.85 1 6.769v13.142c0 1.2.34 2.368.98 3.38l6.46 10.2c.593.936.907 2.017.907 3.125v3.212c0 .647.524 1.172 1.172 1.172h20.963c.647 0 1.172-.525 1.172-1.172v-3.212c0-1.108.313-2.19.906-3.125l6.46-10.199a6.309 6.309 0 0 0 .98-3.38V6.715c0-.956-.377-1.85-1.062-2.518ZM10.42 32.236 3.96 22.038a3.968 3.968 0 0 1-.616-2.127V6.77c0-.659.511-1.208 1.14-1.224.32-.008.621.11.85.332.228.222.354.52.354.84V19.02a3.502 3.502 0 0 0 1.03 2.447l4.274 4.274a1.172 1.172 0 1 0 1.657-1.657l-4.274-4.274a1.173 1.173 0 0 1 0-1.657 1.173 1.173 0 0 1 1.657 0l8.77 8.77a3.495 3.495 0 0 1 1.026 2.488v9.244H11.69v-2.04c0-1.553-.439-3.067-1.27-4.38Zm28.237-12.325c0 .755-.214 1.49-.617 2.127l-6.46 10.198a8.172 8.172 0 0 0-1.27 4.38v2.04h-8.138v-9.244c0-.943.365-1.827 1.027-2.489l8.77-8.77a1.173 1.173 0 0 1 1.657 0c.455.437.455 1.221 0 1.658l-4.275 4.277a1.172 1.172 0 0 0 1.658 1.657l4.274-4.277a3.49 3.49 0 0 0 1.028-2.41l.002-.037V6.77c0-.659.511-1.208 1.14-1.224.318-.009.621.11.85.332.228.223.354.52.354.84V19.91Z"/><path fill="#4640DE" stroke="#4640DE" d="M12.834 11.33c.05.055.222.225 3.506 3.427 1.712 1.67 3.652 3.56 3.808 3.718a1.172 1.172 0 0 0 1.7-.01c.166-.171 1.96-1.917 3.542-3.458 2.772-2.698 3.652-3.557 3.763-3.676.025-.028.049-.056.071-.085 3.788-4.809.338-10.207-4.551-10.23-1.327.02-2.586.475-3.692 1.327-2.848-2.155-5.98-1.455-7.835.26-2.501 2.284-2.625 6.1-.347 8.689l.035.039Zm1.903-7.007c1.194-1.104 3.333-1.657 5.433.414a1.175 1.175 0 0 0 1.666-.02c1.3-1.345 3.55-2.044 5.413-.4 1.218 1.073 1.984 3.14.16 5.446-.294.295-2.15 2.102-3.654 3.565a2692.423 2692.423 0 0 0-2.763 2.693c-.798-.782-5.827-5.68-6.43-6.275-1.192-1.443-1.642-3.742.175-5.423Z"/></svg>