<svg width="25" height="24" viewBox="0 0 25 24" fill="none" xmlns="http://www.w3.org/2000/svg">
<g opacity="0.5" clip-path="url(#clip0_31939_1042)">
<path d="M18.2002 4H6.2002C5.09563 4 4.2002 4.89543 4.2002 6V18C4.2002 19.1046 5.09563 20 6.2002 20H18.2002C19.3048 20 20.2002 19.1046 20.2002 18V6C20.2002 4.89543 19.3048 4 18.2002 4Z" stroke="#515B6F" stroke-width="2" stroke-linecap="round" stroke-linejoin="round"/>
<path d="M8.2002 11V16" stroke="#515B6F" stroke-width="2" stroke-linecap="round" stroke-linejoin="round"/>
<path d="M8.2002 8V8.01" stroke="#515B6F" stroke-width="2" stroke-linecap="round" stroke-linejoin="round"/>
<path d="M12.2002 16V11" stroke="#515B6F" stroke-width="2" stroke-linecap="round" stroke-linejoin="round"/>
<path d="M16.2002 16V13C16.2002 12.4696 15.9895 11.9609 15.6144 11.5858C15.2393 11.2107 14.7306 11 14.2002 11C13.6698 11 13.1611 11.2107 12.786 11.5858C12.4109 11.9609 12.2002 12.4696 12.2002 13" stroke="#515B6F" stroke-width="2" stroke-linecap="round" stroke-linejoin="round"/>
</g>
<defs>
<clipPath id="clip0_31939_1042">
<rect width="24" height="24" fill="white" transform="translate(0.200195)"/>
</clipPath>
</defs>
</svg>
