<svg xmlns="http://www.w3.org/2000/svg" width="13" height="12" fill="none"><path fill="#fff" fill-rule="evenodd" d="M3.744.074c-.976.044-1.822.283-2.505.963-.686.684-.921 1.534-.966 2.501-.027.603-.187 5.16.278 6.356a3.023 3.023 0 0 0 1.745 1.742c.38.147.813.247 1.448.277 5.313.24 7.282.11 8.113-2.019.147-.379.248-.812.277-1.446.242-5.33-.04-6.485-.966-7.41C10.434.303 9.57-.196 3.744.073Zm.049 10.767c-.582-.027-.897-.124-1.108-.205a1.952 1.952 0 0 1-1.132-1.13c-.355-.908-.237-5.222-.206-5.92.031-.683.17-1.308.652-1.79.596-.596 1.367-.888 6.616-.651.685.031 1.31.17 1.794.65.596.596.892 1.373.651 6.605-.026.58-.123.896-.205 1.106-.54 1.385-1.782 1.577-7.062 1.335Zm4.88-8.027a.716.716 0 1 0 1.43-.002.716.716 0 0 0-1.43.002ZM3.14 5.993A3.061 3.061 0 0 0 6.204 9.05a3.061 3.061 0 0 0 3.063-3.058 3.06 3.06 0 0 0-3.063-3.058A3.06 3.06 0 0 0 3.14 5.993Zm1.075 0c0-1.096.89-1.985 1.989-1.985 1.098 0 1.988.889 1.988 1.985s-.89 1.985-1.988 1.985a1.987 1.987 0 0 1-1.989-1.985Z" clip-rule="evenodd"/></svg>