<svg xmlns="http://www.w3.org/2000/svg" width="161" height="48" fill="none"><g clip-path="url(#a)"><mask id="b" width="188" height="48" x="0" y="0" maskUnits="userSpaceOnUse" style="mask-type:luminance"><path fill="#fff" d="M187.927.296H.668v47.408h187.259V.296Z"/></mask><g mask="url(#b)"><mask id="c" width="188" height="34" x="0" y="-3" maskUnits="userSpaceOnUse" style="mask-type:luminance"><path fill="#fff" d="M187.927-2.311H.668V30.4h187.259V-2.31Z"/></mask><g mask="url(#c)"><mask id="d" width="716" height="457" x="-25" y="-59" maskUnits="userSpaceOnUse" style="mask-type:luminance"><path fill="#fff" d="M-24.932-58.963h715.219v456.059h-715.22V-58.963Z"/></mask><g fill="#4640DE" mask="url(#d)"><path d="M34.113 16.224c-.966 1.267-1.875 2.473-2.805 3.661-.086.11-.305.166-.462.166-3.16.014-6.32.015-9.48.023-.396.001-.793.017-1.187.051-.614.054-.952.384-.983.928-.033.567.233.91.846 1.042.255.055.523.075.785.076 2.705.007 5.409.002 8.113.009 1.38.003 2.725.167 3.945.888.956.563 1.513 1.405 1.605 2.488a8.075 8.075 0 0 1-.107 2.098c-.239 1.32-1.054 2.23-2.266 2.787a7.554 7.554 0 0 1-3.162.694c-4.805.011-9.612.003-14.417 0-.043 0-.086-.013-.183-.03.065-.11.11-.21.174-.293.813-1.06 1.633-2.113 2.438-3.18.16-.21.332-.28.591-.28 3.587.005 7.173.002 10.759-.007a4.638 4.638 0 0 0 1.003-.1c.56-.128.822-.514.807-1.098-.013-.5-.278-.815-.835-.922a5.239 5.239 0 0 0-.96-.079c-2.734-.007-5.468.005-8.202-.014-1.017-.007-2.017-.16-2.964-.566-1.303-.557-2.12-1.514-2.33-2.92-.24-1.604.104-3.044 1.404-4.127.837-.697 1.856-1.005 2.913-1.15.754-.103 1.52-.163 2.281-.165 4.13-.011 8.26.002 12.39.007.07 0 .14.006.29.013Z"/><path d="M45.908 23.18c-.034 3.912-.735 7.105-2.189 10.127-.243.506-.44.64-.97.432-.565-.223-1.135-.506-1.6-.888-.736-.602-1.392-1.302-2.066-1.976-.071-.071-.09-.27-.045-.372 1.033-2.347 1.534-4.797 1.428-7.361-.126-3.06-1.038-5.87-2.77-8.403a15.897 15.897 0 0 0-4.869-4.646c-1.705-1.043-3.537-1.776-5.511-2.127-.26-.046-.402-.157-.434-.406-.153-1.218-.31-2.436-.447-3.655-.022-.198.027-.41.069-.608.185-.89.28-.95 1.175-.804 5.269.869 9.625 3.346 13.088 7.4 2.567 3.005 4.196 6.454 4.842 10.348.192 1.153.24 2.33.299 2.939ZM2.85 23.353c.354-7.323 3.42-13.46 9.852-17.722 3.11-2.061 6.579-3.19 10.315-3.478.505-.039.77.21.8.604.059.765.083 1.548-.017 2.306-.099.748-.38 1.472-.557 2.212-.061.259-.18.346-.44.374-2.17.23-4.232.834-6.136 1.909-4.621 2.608-7.323 6.558-8.164 11.779-.424 2.629-.125 5.2.716 7.718.05.147.032.403-.063.497-.923.909-1.909 1.747-3.08 2.324-.346.17-.745.26-1.13.313-.137.019-.389-.144-.445-.281-.85-2.09-1.402-4.252-1.54-6.51-.036-.586-.064-1.172-.112-2.045Z"/></g><path fill="#4640DE" d="M48.201 34.809V17.505h1.868v2h.23c.142-.219.338-.498.59-.836.256-.344.622-.65 1.097-.918.481-.273 1.131-.41 1.95-.41 1.06 0 1.994.265 2.802.795.809.53 1.44 1.281 1.893 2.253.453.973.68 2.12.68 3.441 0 1.333-.227 2.488-.68 3.466-.453.972-1.082 1.726-1.884 2.261-.803.53-1.73.795-2.778.795-.808 0-1.455-.134-1.942-.401-.486-.274-.86-.582-1.122-.926a12.38 12.38 0 0 1-.606-.869h-.164v6.653H48.2Zm1.901-11.011c0 .95.14 1.789.418 2.515.278.72.685 1.286 1.22 1.696.536.404 1.191.606 1.967.606.808 0 1.483-.213 2.024-.639.546-.432.956-1.01 1.229-1.737.278-.732.417-1.546.417-2.441 0-.885-.136-1.683-.41-2.393-.267-.715-.674-1.28-1.22-1.696-.54-.42-1.22-.63-2.04-.63-.787 0-1.447.199-1.983.598-.535.393-.94.944-1.212 1.654-.273.705-.41 1.527-.41 2.467Zm12.159 6.292V17.505h1.868v1.901h.13c.23-.623.645-1.128 1.246-1.516a3.666 3.666 0 0 1 2.032-.581c.142 0 .32.002.532.008.213.005.374.014.484.024v1.967a5.686 5.686 0 0 0-.45-.074 4.427 4.427 0 0 0-.73-.057c-.612 0-1.158.128-1.639.385-.475.251-.852.6-1.13 1.048-.273.443-.41.948-.41 1.516v7.964H62.26Zm8.584 0V17.505h1.933V30.09h-1.933Zm.983-14.682c-.377 0-.702-.128-.975-.385a1.237 1.237 0 0 1-.401-.926c0-.36.133-.67.4-.926.274-.256.599-.385.976-.385s.7.129.967.385c.273.257.41.566.41.926 0 .36-.137.67-.41.926-.268.257-.59.385-.967.385Zm6.425 7.112v7.57H76.32V17.505h1.868v1.967h.164a3.594 3.594 0 0 1 1.343-1.54c.601-.394 1.377-.59 2.327-.59.852 0 1.598.174 2.237.524.639.344 1.136.868 1.491 1.573.355.699.533 1.584.533 2.654v7.997h-1.934v-7.866c0-.988-.257-1.758-.77-2.31-.514-.557-1.218-.836-2.114-.836-.617 0-1.169.134-1.655.402-.48.267-.86.658-1.139 1.171-.278.514-.418 1.137-.418 1.869Zm17.036-5.015v1.639h-6.522v-1.639h6.522Zm-4.621-3.015H92.6v11.995c0 .546.08.956.238 1.229.164.268.371.448.623.54.256.088.527.132.81.132.214 0 .389-.011.525-.033l.328-.066.393 1.737c-.131.05-.314.099-.549.148a4.05 4.05 0 0 1-.893.082 3.893 3.893 0 0 1-1.606-.353 3.189 3.189 0 0 1-1.294-1.073c-.339-.48-.508-1.087-.508-1.819V14.49Zm12.67 15.862c-1.212 0-2.258-.268-3.138-.803-.874-.54-1.548-1.294-2.023-2.261-.47-.972-.705-2.103-.705-3.392 0-1.29.235-2.425.705-3.408.475-.989 1.136-1.76 1.982-2.31.853-.558 1.847-.837 2.983-.837.655 0 1.302.11 1.941.328a4.808 4.808 0 0 1 1.745 1.065c.525.486.943 1.13 1.254 1.934.311.803.467 1.791.467 2.966v.819h-9.7v-1.671h7.734c0-.71-.142-1.344-.426-1.901a3.211 3.211 0 0 0-1.196-1.32c-.514-.322-1.12-.483-1.819-.483-.771 0-1.437.192-1.999.574a3.769 3.769 0 0 0-1.287 1.475c-.3.606-.45 1.256-.45 1.95v1.114c0 .95.163 1.756.491 2.417.334.655.795 1.155 1.385 1.5.59.338 1.275.507 2.056.507a4.19 4.19 0 0 0 1.377-.213 2.941 2.941 0 0 0 1.073-.655c.3-.295.533-.661.697-1.098l1.867.524a4.138 4.138 0 0 1-.991 1.672 4.838 4.838 0 0 1-1.72 1.114c-.683.262-1.45.393-2.303.393Zm8.153-.262V17.505h1.867v1.901h.131c.23-.623.645-1.128 1.246-1.516a3.666 3.666 0 0 1 2.032-.581c.142 0 .319.002.532.008.213.005.374.014.484.024v1.967a5.753 5.753 0 0 0-.451-.074 4.419 4.419 0 0 0-.729-.057c-.612 0-1.158.128-1.639.385a2.9 2.9 0 0 0-1.13 1.048c-.273.443-.41.948-.41 1.516v7.964h-1.933Zm17.498-9.766-1.737.491a3.247 3.247 0 0 0-.483-.844 2.35 2.35 0 0 0-.853-.688c-.36-.18-.822-.27-1.384-.27-.771 0-1.412.177-1.926.532-.508.35-.762.795-.762 1.336 0 .48.175.86.525 1.139.349.278.896.51 1.638.696l1.868.459c1.126.273 1.964.69 2.516 1.253.551.558.827 1.276.827 2.155 0 .721-.207 1.366-.623 1.934-.409.568-.983 1.016-1.72 1.343-.737.328-1.595.492-2.573.492-1.283 0-2.346-.279-3.187-.836-.841-.557-1.373-1.37-1.597-2.441l1.835-.459c.175.677.505 1.185.991 1.524.492.339 1.133.508 1.925.508.902 0 1.617-.191 2.147-.573.536-.388.803-.853.803-1.393 0-.438-.153-.803-.459-1.098-.306-.3-.775-.525-1.409-.672l-2.097-.492c-1.153-.273-1.999-.696-2.54-1.27-.536-.579-.803-1.302-.803-2.17 0-.71.199-1.339.598-1.885.404-.546.953-.975 1.647-1.287.699-.31 1.491-.466 2.376-.466 1.245 0 2.223.273 2.933.819.715.546 1.223 1.267 1.524 2.163Z"/></g><mask id="e" width="114" height="20" x="47" y="33" maskUnits="userSpaceOnUse" style="mask-type:luminance"><path fill="#fff" d="M160.668 33.956H47.364v18.963h113.304V33.956Z"/></mask><g fill="#4640DE" mask="url(#e)"><path d="M20.942 38.365V21.06h1.868v2h.23c.141-.22.338-.498.59-.837.256-.344.622-.65 1.097-.917.48-.273 1.13-.41 1.95-.41 1.06 0 1.994.265 2.802.795.809.53 1.44 1.28 1.893 2.253.453.972.68 2.12.68 3.441 0 1.333-.227 2.488-.68 3.466-.454.972-1.082 1.726-1.885 2.261-.803.53-1.728.795-2.777.795-.809 0-1.456-.134-1.942-.402-.486-.273-.86-.581-1.122-.926-.263-.35-.465-.639-.607-.868h-.164v6.653h-1.933Zm1.9-11.012c0 .95.14 1.79.419 2.515.278.722.685 1.287 1.22 1.697.535.404 1.191.606 1.967.606.808 0 1.483-.213 2.023-.64.546-.43.956-1.01 1.23-1.736.278-.732.417-1.546.417-2.442 0-.885-.136-1.682-.41-2.392-.267-.715-.674-1.281-1.22-1.696-.541-.42-1.221-.63-2.04-.63-.787 0-1.448.198-1.983.597-.535.393-.94.945-1.213 1.655-.273.705-.41 1.527-.41 2.466Zm12.16 6.292V21.061h1.867v1.9H37c.23-.622.645-1.127 1.245-1.515a3.666 3.666 0 0 1 2.032-.582c.142 0 .32.003.533.008.213.006.374.014.483.025v1.966a5.733 5.733 0 0 0-.45-.073 4.438 4.438 0 0 0-.73-.058c-.611 0-1.157.129-1.638.386-.475.25-.852.6-1.13 1.048-.274.443-.41.948-.41 1.516v7.963H35Zm8.584 0V21.061h1.933v12.584h-1.933Zm.983-14.681c-.377 0-.702-.129-.975-.386a1.237 1.237 0 0 1-.402-.925c0-.36.134-.67.402-.926.273-.257.598-.385.974-.385.377 0 .7.128.967.385.273.257.41.565.41.926 0 .36-.137.669-.41.925-.267.257-.59.386-.966.386Zm6.425 7.111v7.57H49.06V21.061h1.868v1.966h.164a3.595 3.595 0 0 1 1.344-1.54c.6-.393 1.377-.59 2.327-.59.852 0 1.597.175 2.236.525.64.344 1.136.868 1.492 1.572.355.7.532 1.584.532 2.655v7.996H57.09V25.78c0-.988-.256-1.759-.77-2.31-.513-.557-1.218-.836-2.113-.836-.617 0-1.17.134-1.655.401-.481.268-.86.659-1.14 1.172-.278.514-.417 1.136-.417 1.868Zm17.035-5.014V22.7h-6.521V21.06h6.521Zm-4.62-3.015h1.933v11.995c0 .546.08.956.238 1.229.163.267.371.447.622.54.257.088.527.131.811.131.213 0 .388-.01.525-.032l.327-.066.394 1.737a3.94 3.94 0 0 1-.55.147 4.049 4.049 0 0 1-.892.082 3.893 3.893 0 0 1-1.606-.352 3.189 3.189 0 0 1-1.295-1.073c-.338-.48-.508-1.087-.508-1.82V18.047Zm12.67 15.862c-1.212 0-2.258-.268-3.138-.803-.874-.541-1.549-1.295-2.024-2.262-.47-.972-.704-2.102-.704-3.391 0-1.29.235-2.426.704-3.409.475-.988 1.136-1.758 1.983-2.31.852-.557 1.846-.836 2.982-.836.656 0 1.303.11 1.942.328a4.81 4.81 0 0 1 1.745 1.065c.525.486.942 1.13 1.254 1.933.311.803.467 1.792.467 2.966v.82h-9.7v-1.672h7.734c0-.71-.143-1.343-.427-1.9a3.21 3.21 0 0 0-1.196-1.32c-.513-.322-1.12-.483-1.819-.483-.77 0-1.436.191-1.999.574a3.773 3.773 0 0 0-1.286 1.474c-.3.607-.45 1.257-.45 1.95v1.114c0 .951.163 1.757.49 2.418.334.655.796 1.155 1.385 1.499.59.338 1.276.508 2.057.508.508 0 .967-.071 1.377-.213a2.949 2.949 0 0 0 1.073-.656c.3-.295.532-.66.696-1.098l1.868.525a4.143 4.143 0 0 1-.991 1.671 4.834 4.834 0 0 1-1.72 1.114c-.684.262-1.45.394-2.303.394Zm8.152-.263V21.061H86.1v1.9h.131c.23-.622.645-1.127 1.245-1.515a3.666 3.666 0 0 1 2.032-.582c.142 0 .32.003.533.008.213.006.374.014.483.025v1.966a5.718 5.718 0 0 0-.45-.073 4.438 4.438 0 0 0-.73-.058c-.611 0-1.157.129-1.638.386-.475.25-.852.6-1.13 1.048-.274.443-.41.948-.41 1.516v7.963H84.23Zm17.498-9.766-1.736.492c-.11-.29-.271-.57-.484-.844a2.346 2.346 0 0 0-.852-.688c-.36-.18-.822-.27-1.385-.27-.77 0-1.412.177-1.925.532-.508.35-.762.795-.762 1.335 0 .481.175.86.524 1.14.35.278.896.51 1.639.696l1.868.459c1.125.273 1.964.69 2.515 1.253.552.557.828 1.275.828 2.155 0 .721-.208 1.366-.623 1.933-.41.569-.983 1.016-1.72 1.344-.738.328-1.595.492-2.573.492-1.284 0-2.346-.279-3.187-.836-.841-.557-1.374-1.371-1.598-2.442l1.836-.458c.174.677.505 1.185.99 1.523.492.34 1.134.508 1.926.508.901 0 1.617-.19 2.147-.573.535-.388.803-.852.803-1.393 0-.437-.153-.803-.46-1.098-.305-.3-.775-.524-1.408-.671l-2.098-.492c-1.152-.273-1.999-.697-2.54-1.27-.535-.579-.802-1.303-.802-2.171 0-.71.199-1.338.597-1.885.405-.546.954-.974 1.647-1.286.7-.311 1.492-.467 2.376-.467 1.246 0 2.223.273 2.934.82.715.546 1.223 1.267 1.523 2.162ZM48.175 42.725v-6.206h4.881v6.206h-.953v-5.318h-2.974v5.318h-.954Zm9.225.129c-.599 0-1.114-.132-1.548-.396a2.66 2.66 0 0 1-.998-1.115c-.231-.48-.347-1.037-.347-1.673 0-.636.116-1.196.347-1.68.235-.488.56-.868.978-1.14.42-.275.91-.412 1.47-.412.324 0 .643.054.958.161.315.108.602.283.86.526.26.24.465.557.619.953.154.396.23.884.23 1.463v.404h-4.784v-.824H59c0-.35-.07-.663-.21-.938a1.581 1.581 0 0 0-.59-.65 1.65 1.65 0 0 0-.897-.239c-.38 0-.709.095-.986.283a1.861 1.861 0 0 0-.635.727c-.148.3-.222.62-.222.962v.55c0 .468.081.866.243 1.191.164.324.391.57.682.74a2 2 0 0 0 1.015.25c.25 0 .476-.035.678-.105.205-.072.381-.18.53-.323.148-.145.262-.326.343-.541l.921.258c-.097.313-.26.587-.489.825a2.38 2.38 0 0 1-.848.549c-.337.13-.715.194-1.135.194Zm4.02 2.198v-8.533h.92v.985h.114c.07-.107.167-.245.291-.412.127-.17.307-.32.541-.452.237-.135.558-.202.962-.202.522 0 .983.13 1.382.392.398.261.71.631.933 1.11.224.48.336 1.046.336 1.698 0 .657-.112 1.227-.336 1.709-.223.48-.533.851-.93 1.115a2.43 2.43 0 0 1-1.369.392c-.398 0-.718-.066-.957-.198a1.773 1.773 0 0 1-.554-.457 6.035 6.035 0 0 1-.299-.428h-.08v3.28h-.954Zm.937-5.43c0 .468.069.882.206 1.24.137.355.338.634.602.837.264.199.587.298.97.298.398 0 .731-.105.998-.315.27-.213.471-.498.606-.856.137-.361.206-.763.206-1.204 0-.437-.067-.83-.202-1.18a1.823 1.823 0 0 0-.602-.836c-.267-.208-.602-.312-1.006-.312-.388 0-.714.099-.978.295a1.77 1.77 0 0 0-.598.817c-.134.347-.202.752-.202 1.216Zm8.598 3.232c-.598 0-1.114-.132-1.547-.396a2.658 2.658 0 0 1-.998-1.115c-.232-.48-.348-1.037-.348-1.673 0-.636.116-1.196.348-1.68.234-.488.56-.868.978-1.14.42-.275.91-.412 1.47-.412.323 0 .642.054.958.161.315.108.602.283.86.526.259.24.465.557.619.953.153.396.23.884.23 1.463v.404H68.74v-.824h3.814c0-.35-.07-.663-.21-.938a1.583 1.583 0 0 0-.59-.65 1.65 1.65 0 0 0-.897-.239c-.38 0-.708.095-.986.283a1.862 1.862 0 0 0-.634.727c-.148.3-.222.62-.222.962v.55c0 .468.08.866.242 1.191.164.324.392.57.683.74.29.167.629.25 1.014.25.25 0 .477-.035.679-.105.205-.072.381-.18.53-.323.147-.145.262-.326.343-.541l.92.258c-.096.313-.259.587-.488.825a2.379 2.379 0 0 1-.849.549c-.336.13-.715.194-1.135.194Zm4.02-.13V36.52h2.538c.668 0 1.198.15 1.592.452.393.302.59.7.59 1.196 0 .377-.112.67-.336.877a1.78 1.78 0 0 1-.86.416c.229.032.45.113.666.242.218.13.399.308.542.534.142.223.214.498.214.824 0 .318-.081.602-.243.852a1.66 1.66 0 0 1-.694.595c-.302.145-.663.218-1.084.218h-2.925Zm.905-.872h2.02c.33 0 .586-.078.772-.234.186-.157.279-.37.279-.639 0-.32-.093-.572-.279-.755-.186-.186-.443-.28-.772-.28h-2.02v1.908Zm0-2.731h1.633c.256 0 .475-.035.658-.105a.93.93 0 0 0 .42-.307c.1-.135.15-.294.15-.477a.703.703 0 0 0-.327-.614c-.218-.151-.519-.227-.901-.227H75.88v1.73Zm5.484 3.604v-6.206h.954v6.206h-.954Zm.485-7.24a.678.678 0 0 1-.48-.19.611.611 0 0 1-.199-.457.61.61 0 0 1 .198-.457.678.678 0 0 1 .481-.19c.186 0 .345.064.477.19a.604.604 0 0 1 .202.457c0 .178-.067.33-.202.456a.664.664 0 0 1-.477.19Zm1.827 5.656h1.018c.022.28.149.493.38.638.235.146.539.218.913.218.383 0 .71-.078.982-.234.272-.159.408-.415.408-.768a.952.952 0 0 0-.153-.541 1.01 1.01 0 0 0-.433-.364 1.551 1.551 0 0 0-.658-.129h-1.067v-.857h1.067c.38 0 .66-.086.84-.258a.851.851 0 0 0 .275-.647.83.83 0 0 0-.295-.666c-.197-.17-.475-.255-.836-.255-.364 0-.667.082-.91.247-.242.161-.37.37-.383.626h-1.002c.01-.334.113-.63.307-.885.194-.258.458-.46.792-.606a2.805 2.805 0 0 1 1.147-.222c.437 0 .815.076 1.136.23.323.15.572.357.747.618.178.259.267.553.267.881 0 .35-.099.633-.295.849a1.633 1.633 0 0 1-.74.46v.065c.235.016.438.092.61.226.176.132.312.306.409.521.097.213.145.449.145.707 0 .378-.101.706-.303.986a1.98 1.98 0 0 1-.832.647 3.05 3.05 0 0 1-1.208.226c-.44 0-.833-.072-1.18-.214a2.045 2.045 0 0 1-.829-.602 1.495 1.495 0 0 1-.319-.897Zm10.164-1.956v.89h-3.426v-.89h3.426Zm-3.2-2.666v6.206h-.954v-6.206h.954Zm3.927 0v6.206h-.953v-6.206h.953Zm2.695 4.8 2.99-4.8h1.099v6.206h-.953v-4.8l-2.974 4.8h-1.115v-6.206h.953v4.8Zm5.835 1.406v-6.206h.954v2.699h.63l2.231-2.7h1.228l-2.505 2.99 2.537 3.217h-1.228l-2.036-2.619h-.857v2.619h-.954Zm7.065-1.407 2.99-4.8h1.099v6.207h-.954v-4.8l-2.973 4.8h-1.115v-6.206h.953v4.8Zm12.025 1.52c-.622 0-1.173-.16-1.652-.481a3.28 3.28 0 0 1-1.127-1.333c-.27-.566-.404-1.217-.404-1.952v-.776c0-.773.14-1.457.42-2.052.283-.595.672-1.061 1.168-1.398.495-.34 1.065-.51 1.709-.51.56 0 1.058.111 1.495.332a2.57 2.57 0 0 1 1.042.941c.261.407.407.893.436 1.46h-1.05a1.902 1.902 0 0 0-.315-.958 1.845 1.845 0 0 0-.699-.619 1.947 1.947 0 0 0-.909-.218c-.447 0-.845.13-1.192.388-.345.256-.616.611-.813 1.067-.193.455-.29.977-.29 1.567v.776c0 .555.092 1.047.278 1.475.186.428.444.764.772 1.006.329.242.706.364 1.131.364.345 0 .666-.072.962-.215a1.92 1.92 0 0 0 .739-.614c.194-.266.306-.583.336-.95h1.05c-.032.558-.184 1.04-.456 1.443-.27.404-.631.715-1.083.934-.453.215-.968.323-1.548.323Zm-2.343-3.734v-.92h3.442v.92h-3.442Zm6.92 3.62V36.52h2.537c.669 0 1.199.15 1.592.452.394.302.59.7.59 1.196 0 .377-.112.67-.335.877a1.78 1.78 0 0 1-.86.416c.228.032.451.113.666.242.218.13.399.308.541.534.143.223.215.498.215.824 0 .318-.081.602-.243.852-.161.251-.393.449-.695.595-.301.145-.662.218-1.083.218h-2.925Zm.905-.872h2.02c.329 0 .586-.078.772-.234.186-.157.279-.37.279-.639 0-.32-.093-.572-.279-.755-.186-.186-.443-.28-.772-.28h-2.02v1.908Zm0-2.731h1.632c.256 0 .476-.035.659-.105a.93.93 0 0 0 .42-.307c.1-.135.15-.294.15-.477a.703.703 0 0 0-.327-.614c-.219-.151-.519-.227-.902-.227h-1.632v1.73Zm5.484 5.93V36.52h.921v.985h.113c.07-.107.167-.245.291-.412.127-.17.307-.32.542-.452.237-.135.557-.202.961-.202.523 0 .984.13 1.382.392.399.261.71.631.934 1.11.223.48.335 1.046.335 1.698 0 .657-.112 1.227-.335 1.709-.224.48-.534.851-.93 1.115a2.429 2.429 0 0 1-1.369.392c-.399 0-.718-.066-.958-.198a1.781 1.781 0 0 1-.554-.457 6.143 6.143 0 0 1-.299-.428h-.08v3.28h-.954Zm.938-5.43c0 .47.068.883.206 1.241.137.355.338.634.602.837.263.199.587.298.969.298.399 0 .732-.105.998-.315.27-.213.471-.498.606-.856.138-.361.206-.763.206-1.204 0-.437-.067-.83-.202-1.18a1.817 1.817 0 0 0-.602-.836c-.266-.208-.602-.312-1.006-.312-.388 0-.714.099-.977.295a1.759 1.759 0 0 0-.598.817c-.135.347-.202.752-.202 1.216Zm8.517 3.233c-.561 0-1.052-.133-1.475-.4a2.719 2.719 0 0 1-.986-1.12c-.234-.479-.351-1.039-.351-1.68 0-.647.117-1.21.351-1.693.237-.482.566-.856.986-1.123.423-.267.914-.4 1.475-.4.56 0 1.05.133 1.47.4.423.267.752.64.986 1.123.237.482.356 1.046.356 1.693 0 .641-.119 1.201-.356 1.68-.234.48-.563.853-.986 1.12-.42.267-.91.4-1.47.4Zm0-.857c.425 0 .775-.109 1.05-.327.275-.218.478-.505.61-.86.132-.356.198-.741.198-1.156 0-.415-.066-.801-.198-1.16a1.952 1.952 0 0 0-.61-.868c-.275-.221-.625-.332-1.05-.332-.426 0-.776.11-1.051.332-.275.22-.478.51-.61.869a3.327 3.327 0 0 0-.198 1.159c0 .415.066.8.198 1.156.132.355.335.642.61.86.275.218.625.327 1.051.327Zm4.267.728v-6.206h4.881v6.206h-.953v-5.318h-2.974v5.318h-.954Zm7.576-1.407 2.99-4.8h1.099v6.207h-.954v-4.8l-2.973 4.8h-1.116v-6.206h.954v4.8Z"/></g><mask id="f" width="51" height="20" x="0" y="30" maskUnits="userSpaceOnUse" style="mask-type:luminance"><path fill="#fff" d="M50.446 30.4H.668v18.963h49.778V30.4Z"/></mask><g mask="url(#f)"><mask id="g" width="716" height="457" x="-25" y="-59" maskUnits="userSpaceOnUse" style="mask-type:luminance"><path fill="#fff" d="M-24.932-58.963h715.219v456.059h-715.22V-58.963Z"/></mask><g fill="#4640DE" mask="url(#g)"><path d="M34.113 16.224c-.966 1.267-1.875 2.473-2.805 3.661-.086.11-.305.166-.462.166-3.16.014-6.32.015-9.48.023-.396.001-.793.017-1.187.051-.614.054-.952.384-.983.928-.033.567.233.91.846 1.042.255.055.523.075.785.076 2.705.007 5.409.002 8.113.009 1.38.003 2.725.167 3.945.888.956.563 1.513 1.405 1.605 2.488a8.075 8.075 0 0 1-.107 2.098c-.239 1.32-1.054 2.23-2.266 2.787a7.554 7.554 0 0 1-3.162.694c-4.805.011-9.612.003-14.417 0-.043 0-.086-.013-.183-.03.065-.11.11-.21.174-.293.813-1.06 1.633-2.113 2.438-3.18.16-.21.332-.28.591-.28 3.587.005 7.173.002 10.759-.007a4.638 4.638 0 0 0 1.003-.1c.56-.128.822-.514.807-1.098-.013-.5-.278-.815-.835-.922a5.239 5.239 0 0 0-.96-.079c-2.734-.007-5.468.005-8.202-.014-1.017-.007-2.017-.16-2.964-.566-1.303-.557-2.12-1.514-2.33-2.92-.24-1.604.104-3.044 1.404-4.127.837-.697 1.856-1.005 2.913-1.15.754-.103 1.52-.163 2.281-.165 4.13-.011 8.26.002 12.39.007.07 0 .14.006.29.013Z"/><path d="M45.908 23.18c-.034 3.912-.735 7.105-2.189 10.127-.243.506-.44.64-.97.432-.565-.223-1.135-.506-1.6-.888-.736-.602-1.392-1.302-2.066-1.976-.071-.071-.09-.27-.045-.372 1.033-2.347 1.534-4.797 1.428-7.361-.126-3.06-1.038-5.87-2.77-8.403a15.897 15.897 0 0 0-4.869-4.646c-1.705-1.043-3.537-1.776-5.511-2.127-.26-.046-.402-.157-.434-.406-.153-1.218-.31-2.436-.447-3.655-.022-.198.027-.41.069-.608.185-.89.28-.95 1.175-.804 5.269.869 9.625 3.346 13.088 7.4 2.567 3.005 4.196 6.454 4.842 10.348.192 1.153.24 2.33.299 2.939ZM24.158 45.232c-6.01-.086-11.115-2.31-15.32-6.574-.903-.914-1.647-1.984-2.482-2.967-.292-.345-.259-.678.04-.926.446-.369.914-.767 1.443-.97.968-.372 1.986-.619 2.99-.891.1-.027.29.097.369.203 1.534 2.077 3.425 3.743 5.724 4.928a15.87 15.87 0 0 0 5.745 1.69c2.78.28 5.443-.146 8.003-1.239a15.7 15.7 0 0 0 5.751-4.194c.261-.3.492-.404.863-.244 1.009.434 2.027.848 3.038 1.278.146.062.277.166.406.263.936.7.966.916.231 1.793-3.088 3.688-6.977 6.102-11.65 7.239-1.687.41-3.405.626-5.151.611ZM2.85 23.353c.354-7.323 3.42-13.46 9.852-17.722 3.11-2.061 6.579-3.19 10.315-3.478.505-.039.77.21.8.604.059.765.083 1.548-.017 2.306-.099.748-.38 1.472-.557 2.212-.061.259-.18.346-.44.374-2.17.23-4.232.834-6.136 1.909-4.621 2.608-7.323 6.558-8.164 11.779-.424 2.629-.125 5.2.716 7.718.05.147.032.403-.063.497-.923.909-1.909 1.747-3.08 2.324-.346.17-.745.26-1.13.313-.137.019-.389-.144-.445-.281-.85-2.09-1.402-4.252-1.54-6.51-.036-.586-.064-1.172-.112-2.045Z"/></g><path fill="#4640DE" d="M48.201 34.809V17.505h1.868v2h.23c.142-.219.338-.498.59-.836.256-.344.622-.65 1.097-.918.481-.273 1.131-.41 1.95-.41 1.06 0 1.994.265 2.802.795.809.53 1.44 1.281 1.893 2.253.453.973.68 2.12.68 3.441 0 1.333-.227 2.488-.68 3.466-.453.972-1.082 1.726-1.884 2.261-.803.53-1.73.795-2.778.795-.808 0-1.455-.134-1.942-.401-.486-.274-.86-.582-1.122-.926a12.38 12.38 0 0 1-.606-.869h-.164v6.653H48.2Zm1.901-11.011c0 .95.14 1.789.418 2.515.278.72.685 1.286 1.22 1.696.536.404 1.191.606 1.967.606.808 0 1.483-.213 2.024-.639.546-.432.956-1.01 1.229-1.737.278-.732.417-1.546.417-2.441 0-.885-.136-1.683-.41-2.393-.267-.715-.674-1.28-1.22-1.696-.54-.42-1.22-.63-2.04-.63-.787 0-1.447.199-1.983.598-.535.393-.94.944-1.212 1.654-.273.705-.41 1.527-.41 2.467Zm12.159 6.292V17.505h1.868v1.901h.13c.23-.623.645-1.128 1.246-1.516a3.666 3.666 0 0 1 2.032-.581c.142 0 .32.002.532.008.213.005.374.014.484.024v1.967a5.686 5.686 0 0 0-.45-.074 4.427 4.427 0 0 0-.73-.057c-.612 0-1.158.128-1.639.385-.475.251-.852.6-1.13 1.048-.273.443-.41.948-.41 1.516v7.964H62.26Zm8.584 0V17.505h1.933V30.09h-1.933Zm.983-14.682c-.377 0-.702-.128-.975-.385a1.237 1.237 0 0 1-.401-.926c0-.36.133-.67.4-.926.274-.256.599-.385.976-.385s.7.129.967.385c.273.257.41.566.41.926 0 .36-.137.67-.41.926-.268.257-.59.385-.967.385Zm6.425 7.112v7.57H76.32V17.505h1.868v1.967h.164a3.594 3.594 0 0 1 1.343-1.54c.601-.394 1.377-.59 2.327-.59.852 0 1.598.174 2.237.524.639.344 1.136.868 1.491 1.573.355.699.533 1.584.533 2.654v7.997h-1.934v-7.866c0-.988-.257-1.758-.77-2.31-.514-.557-1.218-.836-2.114-.836-.617 0-1.169.134-1.655.402-.48.267-.86.658-1.139 1.171-.278.514-.418 1.137-.418 1.869Zm17.036-5.015v1.639h-6.522v-1.639h6.522Zm-4.621-3.015H92.6v11.995c0 .546.08.956.238 1.229.164.268.371.448.623.54.256.088.527.132.81.132.214 0 .389-.011.525-.033l.328-.066.393 1.737c-.131.05-.314.099-.549.148a4.05 4.05 0 0 1-.893.082 3.893 3.893 0 0 1-1.606-.353 3.189 3.189 0 0 1-1.294-1.073c-.339-.48-.508-1.087-.508-1.819V14.49Zm12.67 15.862c-1.212 0-2.258-.268-3.138-.803-.874-.54-1.548-1.294-2.023-2.261-.47-.972-.705-2.103-.705-3.392 0-1.29.235-2.425.705-3.408.475-.989 1.136-1.76 1.982-2.31.853-.558 1.847-.837 2.983-.837.655 0 1.302.11 1.941.328a4.808 4.808 0 0 1 1.745 1.065c.525.486.943 1.13 1.254 1.934.311.803.467 1.791.467 2.966v.819h-9.7v-1.671h7.734c0-.71-.142-1.344-.426-1.901a3.211 3.211 0 0 0-1.196-1.32c-.514-.322-1.12-.483-1.819-.483-.771 0-1.437.192-1.999.574a3.769 3.769 0 0 0-1.287 1.475c-.3.606-.45 1.256-.45 1.95v1.114c0 .95.163 1.756.491 2.417.334.655.795 1.155 1.385 1.5.59.338 1.275.507 2.056.507a4.19 4.19 0 0 0 1.377-.213 2.941 2.941 0 0 0 1.073-.655c.3-.295.533-.661.697-1.098l1.867.524a4.138 4.138 0 0 1-.991 1.672 4.838 4.838 0 0 1-1.72 1.114c-.683.262-1.45.393-2.303.393Zm8.153-.262V17.505h1.867v1.901h.131c.23-.623.645-1.128 1.246-1.516a3.666 3.666 0 0 1 2.032-.581c.142 0 .319.002.532.008.213.005.374.014.484.024v1.967a5.753 5.753 0 0 0-.451-.074 4.419 4.419 0 0 0-.729-.057c-.612 0-1.158.128-1.639.385a2.9 2.9 0 0 0-1.13 1.048c-.273.443-.41.948-.41 1.516v7.964h-1.933Zm17.498-9.766-1.737.491a3.247 3.247 0 0 0-.483-.844 2.35 2.35 0 0 0-.853-.688c-.36-.18-.822-.27-1.384-.27-.771 0-1.412.177-1.926.532-.508.35-.762.795-.762 1.336 0 .48.175.86.525 1.139.349.278.896.51 1.638.696l1.868.459c1.126.273 1.964.69 2.516 1.253.551.558.827 1.276.827 2.155 0 .721-.207 1.366-.623 1.934-.409.568-.983 1.016-1.72 1.343-.737.328-1.595.492-2.573.492-1.283 0-2.346-.279-3.187-.836-.841-.557-1.373-1.37-1.597-2.441l1.835-.459c.175.677.505 1.185.991 1.524.492.339 1.133.508 1.925.508.902 0 1.617-.191 2.147-.573.536-.388.803-.853.803-1.393 0-.438-.153-.803-.459-1.098-.306-.3-.775-.525-1.409-.672l-2.097-.492c-1.153-.273-1.999-.696-2.54-1.27-.536-.579-.803-1.302-.803-2.17 0-.71.199-1.339.598-1.885.404-.546.953-.975 1.647-1.287.699-.31 1.491-.466 2.376-.466 1.245 0 2.223.273 2.933.819.715.546 1.223 1.267 1.524 2.163Z"/></g></g></g><defs><clipPath id="a"><path fill="#fff" d="M.668.296h160v47.407h-160z"/></clipPath></defs></svg>