<svg xmlns="http://www.w3.org/2000/svg" width="40" height="40" fill="none"><path fill="#4640DE" d="M17.2 40c-1.7 0-2.992-.508-3.875-1.525S12 36.3 12 35c0-.867.192-1.708.575-2.525.383-.817.975-1.492 1.775-2.025a5.55 5.55 0 0 0 1.775-1.8c.45-.733.758-1.517.925-2.35l-.6-.3a3.09 3.09 0 0 1-.55-.35l-4.6 1.65a18.3 18.3 0 0 1-1.65.5c-.533.133-1.083.2-1.65.2-2.1 0-3.958-.917-5.575-2.75S0 20.733 0 17.2c0-1.7.508-2.992 1.525-3.875S3.683 12 4.95 12c.867 0 1.717.192 2.55.575.833.383 1.517.975 2.05 1.775a5.55 5.55 0 0 0 1.8 1.775c.733.45 1.517.758 2.35.925l.3-.6c.1-.2.217-.383.35-.55l-1.65-4.6a18.3 18.3 0 0 1-.5-1.65 6.577 6.577 0 0 1-.2-1.6c0-2.133.917-4.008 2.75-5.625S19.267 0 22.8 0c1.7 0 2.992.508 3.875 1.525S28 3.683 28 4.95c0 .867-.192 1.717-.575 2.55-.383.833-.975 1.517-1.775 2.05a5.55 5.55 0 0 0-1.775 1.8 7.137 7.137 0 0 0-.925 2.35l.6.3c.2.1.383.217.55.35l4.6-1.7a14.49 14.49 0 0 1 1.625-.475A7.356 7.356 0 0 1 31.95 12c2.7 0 4.717 1.117 6.05 3.35 1.333 2.233 2 4.717 2 7.45 0 1.7-.533 2.992-1.6 3.875-1.067.883-2.25 1.325-3.55 1.325a5.456 5.456 0 0 1-2.425-.575c-.783-.383-1.442-.975-1.975-1.775a5.55 5.55 0 0 0-1.8-1.775 7.137 7.137 0 0 0-2.35-.925l-.3.6c-.1.2-.217.383-.35.55l1.65 4.6c.2.533.367 1.042.5 1.525.133.483.2.992.2 1.525.033 2.167-.867 4.083-2.7 5.75-1.833 1.667-4.533 2.5-8.1 2.5ZM20 23c.833 0 1.542-.292 2.125-.875A2.893 2.893 0 0 0 23 20c0-.833-.292-1.542-.875-2.125A2.893 2.893 0 0 0 20 17c-.833 0-1.542.292-2.125.875A2.893 2.893 0 0 0 17 20c0 .833.292 1.542.875 2.125A2.893 2.893 0 0 0 20 23Zm-2.3-9.6c.2-.067.408-.125.625-.175.217-.05.425-.092.625-.125.267-1.4.775-2.7 1.525-3.9a9.64 9.64 0 0 1 2.975-3c.167-.133.3-.3.4-.5.1-.2.15-.45.15-.75a.88.88 0 0 0-.3-.675c-.2-.183-.5-.275-.9-.275-1.267 0-2.7.275-4.3.825-1.6.55-2.433 1.625-2.5 3.225 0 .3.042.583.125.85.083.267.158.517.225.75l1.35 3.75ZM8 24c.467 0 1.017-.117 1.65-.35l3.75-1.35a6.824 6.824 0 0 1-.175-.625c-.05-.217-.092-.425-.125-.625-1.4-.267-2.7-.775-3.9-1.525a9.64 9.64 0 0 1-3-2.975 1.42 1.42 0 0 0-.525-.4A1.71 1.71 0 0 0 4.95 16c-.3 0-.533.1-.7.3-.167.2-.25.5-.25.9 0 1.8.342 3.383 1.025 4.75C5.708 23.317 6.7 24 8 24Zm9.2 12c1.567 0 3.108-.317 4.625-.95s2.242-1.733 2.175-3.3c0-.267-.042-.517-.125-.75-.083-.233-.158-.45-.225-.65L22.3 26.6c-.2.067-.408.125-.625.175-.217.05-.425.092-.625.125-.267 1.4-.775 2.7-1.525 3.9a9.64 9.64 0 0 1-2.975 3 1.68 1.68 0 0 0-.425.525A1.072 1.072 0 0 0 16 35c.033.267.133.5.3.7.167.2.467.3.9.3Zm17.65-12c.3 0 .567-.083.8-.25.233-.167.35-.483.35-.95 0-1.267-.267-2.708-.8-4.325S33.583 16.033 31.95 16c-.3 0-.583.033-.85.1s-.517.133-.75.2l-3.75 1.4c.067.2.125.408.175.625.05.217.092.425.125.625 1.4.267 2.7.775 3.9 1.525a9.64 9.64 0 0 1 3 2.975c.1.167.25.3.45.4.2.1.4.15.6.15Z"/></svg>