<svg xmlns="http://www.w3.org/2000/svg" width="24" height="24" fill="none"><path fill="#26A4FF" fill-rule="evenodd" d="M12 5a2 2 0 1 0 0 4 2 2 0 0 0 0-4Zm-2.828-.828a4 4 0 1 1 5.656 5.656 4 4 0 0 1-5.656-5.656ZM5 9a1 1 0 1 0 0 2 1 1 0 0 0 0-2ZM2.879 7.879A3 3 0 1 1 7.12 12.12 3 3 0 0 1 2.88 7.88ZM19 9a1 1 0 1 0 0 2 1 1 0 0 0 0-2Zm-2.121-1.121a3 3 0 1 1 4.242 4.242 3 3 0 0 1-4.242-4.242ZM12 13.999a4.002 4.002 0 0 0-3.662 2.389L8.097 19h7.806l-.24-2.612A4.001 4.001 0 0 0 12 13.999ZM18 19h3v-1a2 2 0 0 0-3.213-1.59A6.01 6.01 0 0 1 18 18v1Zm-1.07-4.422a6.003 6.003 0 0 0-9.86 0A4 4 0 0 0 1 18v2a1 1 0 0 0 1 1h20a1 1 0 0 0 1-1v-2a4 4 0 0 0-6.07-3.422ZM6.213 16.41A2 2 0 0 0 3 18v1h3v-1c0-.549.074-1.082.213-1.59Z" clip-rule="evenodd"/></svg>