<svg xmlns="http://www.w3.org/2000/svg" width="24" height="24" fill="none"><path fill="#4640DE" stroke="#4640DE" stroke-width=".5" d="M5.59 1c.426 0 .863.098 1.236.273.425.197.79.494 1.058.892l2.32 3.27c.218.303.39.6.509.904h-.001c.139.323.218.654.218.981 0 .43-.125.844-.356 1.229v-.001a4.248 4.248 0 0 1-.705.894l.001.001-.555.579c.127.204.35.523.736.976.486.556.94 1.06 1.393 1.524.442.433.825.798 1.179 1.11l.346.296h.002c.45.38.768.6.976.722l.558-.548c.316-.316.63-.56.943-.725.585-.361 1.312-.438 2.033-.184l.145.056.001.001c.207.088.425.199.654.342l.233.153v.001l3.315 2.356c.356.24.634.544.819.904l.073.157.002.005c.16.405.237.787.237 1.172 0 .518-.12 1.034-.344 1.515-.22.473-.494.883-.842 1.262-.591.654-1.241 1.128-2 1.434-.72.292-1.502.449-2.324.449-1.17 0-2.393-.28-3.647-.81h-.001c-1.22-.518-2.445-1.229-3.638-2.088h-.002a31.473 31.473 0 0 1-3.397-2.894l-.002-.002a30.138 30.138 0 0 1-2.895-3.389v-.002a19.545 19.545 0 0 1-1.872-3.164l-.196-.444C1.27 8.942 1 7.708 1 6.54c0-.81.145-1.581.427-2.3v-.002A5.591 5.591 0 0 1 2.83 2.207C3.64 1.41 4.578 1 5.59 1Zm0 2c-.468 0-.919.201-1.375.648l-.004.004a3.589 3.589 0 0 0-.918 1.32l-.001.002A4.126 4.126 0 0 0 3 6.54c0 .891.211 1.868.64 2.883.441 1.04 1.062 2.123 1.852 3.21a27.415 27.415 0 0 0 2.684 3.15 27.912 27.912 0 0 0 3.16 2.696h.002c1.066.78 2.159 1.409 3.238 1.86h.002c1.677.717 3.202.864 4.436.35a3.443 3.443 0 0 0 1.279-.925l.003-.003c.212-.23.378-.479.518-.777v-.003a1.52 1.52 0 0 0 .156-.66.942.942 0 0 0-.086-.394.348.348 0 0 0-.046-.072.72.72 0 0 0-.15-.128l-.002-.003-3.32-2.36a2.858 2.858 0 0 0-.386-.231l-.115-.052a3.683 3.683 0 0 1-.144-.061.214.214 0 0 0-.06-.018c-.015-.001-.067-.003-.22.09l-.01.007-.01.005c-.164.082-.321.21-.514.403h-.002l-.76.75v.002c-.465.453-1.169.556-1.711.355l-.008-.003-.007-.003-.27-.12-.01-.004-.007-.004a7.645 7.645 0 0 1-1.069-.716l-.395-.324c-.486-.414-1.01-.9-1.644-1.522l-.002-.003a35.147 35.147 0 0 1-1.501-1.632H8.52c-.476-.557-.828-1.043-1.05-1.455l-.007-.012-.005-.013-.12-.3-.006-.015-.004-.015a2.108 2.108 0 0 1-.088-.563c0-.423.154-.806.45-1.103l.75-.78.003-.004c.19-.189.325-.362.411-.51l.003-.004a.395.395 0 0 0 .073-.21.714.714 0 0 0-.06-.223 2.647 2.647 0 0 0-.29-.477l-.004-.004-2.32-3.28v-.002a.671.671 0 0 0-.272-.226v-.001A1.001 1.001 0 0 0 5.59 3Z"/></svg>