<svg xmlns="http://www.w3.org/2000/svg" style="display: none;">

    <symbol id="icon-conditioner" viewBox="0 0 40 40">
        <path d="M17.2 40C15.5 40 14.2083 39.4917 13.325 38.475C12.4417 37.4583 12 36.3 12 35C12 34.1333 12.1917 33.2917 12.575 32.475C12.9583 31.6583 13.55 30.9833 14.35 30.45C15.0833 29.9833 15.675 29.3833 16.125 28.65C16.575 27.9167 16.8833 27.1333 17.05 26.3L16.45 26C16.25 25.9 16.0667 25.7833 15.9 25.65L11.3 27.3C10.7333 27.5 10.1833 27.6667 9.65 27.8C9.11667 27.9333 8.56667 28 8 28C5.9 28 4.04167 27.0833 2.425 25.25C0.808333 23.4167 0 20.7333 0 17.2C0 15.5 0.508333 14.2083 1.525 13.325C2.54167 12.4417 3.68333 12 4.95 12C5.81667 12 6.66667 12.1917 7.5 12.575C8.33333 12.9583 9.01667 13.55 9.55 14.35C10.0167 15.0833 10.6167 15.675 11.35 16.125C12.0833 16.575 12.8667 16.8833 13.7 17.05L14 16.45C14.1 16.25 14.2167 16.0667 14.35 15.9L12.7 11.3C12.5 10.7333 12.3333 10.1833 12.2 9.65C12.0667 9.11667 12 8.58333 12 8.05C12 5.91667 12.9167 4.04167 14.75 2.425C16.5833 0.808333 19.2667 0 22.8 0C24.5 0 25.7917 0.508333 26.675 1.525C27.5583 2.54167 28 3.68333 28 4.95C28 5.81667 27.8083 6.66667 27.425 7.5C27.0417 8.33333 26.45 9.01667 25.65 9.55C24.9167 10.0167 24.325 10.6167 23.875 11.35C23.425 12.0833 23.1167 12.8667 22.95 13.7L23.55 14C23.75 14.1 23.9333 14.2167 24.1 14.35L28.7 12.65C29.2667 12.45 29.8083 12.2917 30.325 12.175C30.8417 12.0583 31.3833 12 31.95 12C34.65 12 36.6667 13.1167 38 15.35C39.3333 17.5833 40 20.0667 40 22.8C40 24.5 39.4667 25.7917 38.4 26.675C37.3333 27.5583 36.15 28 34.85 28C34.0167 28 33.2083 27.8083 32.425 27.425C31.6417 27.0417 30.9833 26.45 30.45 25.65C29.9833 24.9167 29.3833 24.325 28.65 23.875C27.9167 23.425 27.1333 23.1167 26.3 22.95L26 23.55C25.9 23.75 25.7833 23.9333 25.65 24.1L27.3 28.7C27.5 29.2333 27.6667 29.7417 27.8 30.225C27.9333 30.7083 28 31.2167 28 31.75C28.0333 33.9167 27.1333 35.8333 25.3 37.5C23.4667 39.1667 20.7667 40 17.2 40ZM20 23C20.8333 23 21.5417 22.7083 22.125 22.125C22.7083 21.5417 23 20.8333 23 20C23 19.1667 22.7083 18.4583 22.125 17.875C21.5417 17.2917 20.8333 17 20 17C19.1667 17 18.4583 17.2917 17.875 17.875C17.2917 18.4583 17 19.1667 17 20C17 20.8333 17.2917 21.5417 17.875 22.125C18.4583 22.7083 19.1667 23 20 23ZM17.7 13.4C17.9 13.3333 18.1083 13.275 18.325 13.225C18.5417 13.175 18.75 13.1333 18.95 13.1C19.2167 11.7 19.725 10.4 20.475 9.2C21.225 8 22.2167 7 23.45 6.2C23.6167 6.06667 23.75 5.9 23.85 5.7C23.95 5.5 24 5.25 24 4.95C24 4.68333 23.9 4.45833 23.7 4.275C23.5 4.09167 23.2 4 22.8 4C21.5333 4 20.1 4.275 18.5 4.825C16.9 5.375 16.0667 6.45 16 8.05C16 8.35 16.0417 8.63333 16.125 8.9C16.2083 9.16667 16.2833 9.41667 16.35 9.65L17.7 13.4ZM8 24C8.46667 24 9.01667 23.8833 9.65 23.65L13.4 22.3C13.3333 22.1 13.275 21.8917 13.225 21.675C13.175 21.4583 13.1333 21.25 13.1 21.05C11.7 20.7833 10.4 20.275 9.2 19.525C8 18.775 7 17.7833 6.2 16.55C6.06667 16.3833 5.89167 16.25 5.675 16.15C5.45833 16.05 5.21667 16 4.95 16C4.65 16 4.41667 16.1 4.25 16.3C4.08333 16.5 4 16.8 4 17.2C4 19 4.34167 20.5833 5.025 21.95C5.70833 23.3167 6.7 24 8 24ZM17.2 36C18.7667 36 20.3083 35.6833 21.825 35.05C23.3417 34.4167 24.0667 33.3167 24 31.75C24 31.4833 23.9583 31.2333 23.875 31C23.7917 30.7667 23.7167 30.55 23.65 30.35L22.3 26.6C22.1 26.6667 21.8917 26.725 21.675 26.775C21.4583 26.825 21.25 26.8667 21.05 26.9C20.7833 28.3 20.275 29.6 19.525 30.8C18.775 32 17.7833 33 16.55 33.8C16.3833 33.9333 16.2417 34.1083 16.125 34.325C16.0083 34.5417 15.9667 34.7667 16 35C16.0333 35.2667 16.1333 35.5 16.3 35.7C16.4667 35.9 16.7667 36 17.2 36ZM34.85 24C35.15 24 35.4167 23.9167 35.65 23.75C35.8833 23.5833 36 23.2667 36 22.8C36 21.5333 35.7333 20.0917 35.2 18.475C34.6667 16.8583 33.5833 16.0333 31.95 16C31.65 16 31.3667 16.0333 31.1 16.1C30.8333 16.1667 30.5833 16.2333 30.35 16.3L26.6 17.7C26.6667 17.9 26.725 18.1083 26.775 18.325C26.825 18.5417 26.8667 18.75 26.9 18.95C28.3 19.2167 29.6 19.725 30.8 20.475C32 21.225 33 22.2167 33.8 23.45C33.9 23.6167 34.05 23.75 34.25 23.85C34.45 23.95 34.65 24 34.85 24Z" fill="currentColor"/>
    </symbol>

    <symbol id="icon-wifi" viewBox="0 0 48 48">
        <mask id="mask0_31939_627_symbol" style="mask-type:alpha" maskUnits="userSpaceOnUse" x="0" y="0" width="48" height="48">
            <rect width="48" height="48" fill="#D9D9D9"/>
        </mask>
        <g mask="url(#mask0_31939_627_symbol)">
            <path d="M24 42C22.6 42 21.4167 41.5167 20.45 40.55C19.4833 39.5833 19 38.4 19 37C19 35.6 19.4833 34.4167 20.45 33.45C21.4167 32.4833 22.6 32 24 32C25.4 32 26.5833 32.4833 27.55 33.45C28.5167 34.4167 29 35.6 29 37C29 38.4 28.5167 39.5833 27.55 40.55C26.5833 41.5167 25.4 42 24 42ZM12.7 30.7L8.5 26.4C10.4667 24.4333 12.775 22.875 15.425 21.725C18.075 20.575 20.9333 20 24 20C27.0667 20 29.925 20.5833 32.575 21.75C35.225 22.9167 37.5333 24.5 39.5 26.5L35.3 30.7C33.8333 29.2333 32.1333 28.0833 30.2 27.25C28.2667 26.4167 26.2 26 24 26C21.8 26 19.7333 26.4167 17.8 27.25C15.8667 28.0833 14.1667 29.2333 12.7 30.7ZM4.2 22.2L0 18C3.06667 14.8667 6.65 12.4167 10.75 10.65C14.85 8.88333 19.2667 8 24 8C28.7333 8 33.15 8.88333 37.25 10.65C41.35 12.4167 44.9333 14.8667 48 18L43.8 22.2C41.2333 19.6333 38.2583 17.625 34.875 16.175C31.4917 14.725 27.8667 14 24 14C20.1333 14 16.5083 14.725 13.125 16.175C9.74167 17.625 6.76667 19.6333 4.2 22.2Z" fill="currentColor"/>
        </g>
    </symbol>

    <symbol id="icon-tv" viewBox="0 0 48 48">
        <path d="M19.5 34L18 40L16 42H32L30 40L28.5 34H19.5ZM6 26H42H6ZM10 34H38C39.0609 34 40.0783 33.5786 40.8284 32.8284C41.5786 32.0783 42 31.0609 42 30V10C42 8.93913 41.5786 7.92172 40.8284 7.17157C40.0783 6.42143 39.0609 6 38 6H10C8.93913 6 7.92172 6.42143 7.17157 7.17157C6.42143 7.92172 6 8.93913 6 10V30C6 31.0609 6.42143 32.0783 7.17157 32.8284C7.92172 33.5786 8.93913 34 10 34Z" stroke="currentColor" fill="#fff" stroke-width="4" stroke-linecap="round" stroke-linejoin="round"/>
    </symbol>

    <symbol id="icon-toilet" viewBox="0 0 48 48">
        <mask id="mask0_31939_636_symbol" style="mask-type:alpha" maskUnits="userSpaceOnUse" x="0" y="0" width="48" height="48">
            <rect width="48" height="48" fill="#D9D9D9"/>
        </mask>
        <g mask="url(#mask0_31939_636_symbol)">
            <path d="M11 44V29H8V18C8 16.9 8.39167 15.9583 9.175 15.175C9.95833 14.3917 10.9 14 12 14H18C19.1 14 20.0417 14.3917 20.825 15.175C21.6083 15.9583 22 16.9 22 18V29H19V44H11ZM15 12C13.9 12 12.9583 11.6083 12.175 10.825C11.3917 10.0417 11 9.1 11 8C11 6.9 11.3917 5.95833 12.175 5.175C12.9583 4.39167 13.9 4 15 4C16.1 4 17.0417 4.39167 17.825 5.175C18.6083 5.95833 19 6.9 19 8C19 9.1 18.6083 10.0417 17.825 10.825C17.0417 11.6083 16.1 12 15 12ZM30 44V32H24L29.1 16.7C29.3667 15.8333 29.8583 15.1667 30.575 14.7C31.2917 14.2333 32.1 14 33 14C33.9 14 34.7083 14.2333 35.425 14.7C36.1417 15.1667 36.6333 15.8333 36.9 16.7L42 32H36V44H30ZM33 12C31.9 12 30.9583 11.6083 30.175 10.825C29.3917 10.0417 29 9.1 29 8C29 6.9 29.3917 5.95833 30.175 5.175C30.9583 4.39167 31.9 4 33 4C34.1 4 35.0417 4.39167 35.825 5.175C36.6083 5.95833 37 6.9 37 8C37 9.1 36.6083 10.0417 35.825 10.825C35.0417 11.6083 34.1 12 33 12Z" fill="currentColor"/>
        </g>
    </symbol>

    <symbol id="icon-bed" viewBox="0 0 48 48">
        <mask id="mask0_31939_641_symbol" style="mask-type:alpha" maskUnits="userSpaceOnUse" x="0" y="0" width="48" height="48">
            <rect width="48" height="48" fill="#D9D9D9"/>
        </mask>
        <g mask="url(#mask0_31939_641_symbol)">
            <path d="M8 14C8 12.3333 8.58333 10.9167 9.75 9.75C10.9167 8.58333 12.3333 8 14 8H34C35.6667 8 37.0833 8.58333 38.25 9.75C39.4167 10.9167 40 12.3333 40 14V18C41.6667 18 43.0833 18.5833 44.25 19.75C45.4167 20.9167 46 22.3333 46 24V34C46 35.6667 45.4167 37.0833 44.25 38.25C43.0833 39.4167 41.6667 40 40 40H8C6.33333 40 4.91667 39.4167 3.75 38.25C2.58333 37.0833 2 35.6667 2 34V24C2 22.3333 2.58333 20.9167 3.75 19.75C4.91667 18.5833 6.33333 18 8 18V14ZM12 14V19.6C12.6 20.1667 13.0833 20.8167 13.45 21.55C13.8167 22.2833 14 23.1 14 24V28H34V24C34 23.1 34.1833 22.2833 34.55 21.55C34.9167 20.8167 35.4 20.1667 36 19.6V14C36 13.4333 35.8083 12.9583 35.425 12.575C35.0417 12.1917 34.5667 12 34 12H14C13.4333 12 12.9583 12.1917 12.575 12.575C12.1917 12.9583 12 13.4333 12 14ZM38 32H10V24C10 23.7333 9.95 23.475 9.85 23.225C9.75 22.975 9.60833 22.7583 9.425 22.575C9.24167 22.3917 9.025 22.25 8.775 22.15C8.525 22.05 8.26667 22 8 22C7.43333 22 6.95833 22.1917 6.575 22.575C6.19167 22.9583 6 23.4333 6 24V34C6 34.5667 6.19167 35.0417 6.575 35.425C6.95833 35.8083 7.43333 36 8 36H40C40.5667 36 41.0417 35.8083 41.425 35.425C41.8083 35.0417 42 34.5667 42 34V24C42 23.4333 41.8083 22.9583 41.425 22.575C41.0417 22.1917 40.5667 22 40 22C39.7333 22 39.475 22.05 39.225 22.15C38.975 22.25 38.7583 22.3917 38.575 22.575C38.3917 22.7583 38.25 22.975 38.15 23.225C38.05 23.475 38 23.7333 38 24V32Z" fill="currentColor"/>
        </g>
    </symbol>

    <symbol id="icon-pet" viewBox="0 0 42 42">
        <path d="M39.9382 4.19842C39.2534 3.53107 38.348 3.17779 37.3926 3.20185C35.5048 3.25052 33.969 4.85069 33.969 6.76915V15.668C32.7321 15.2327 31.2986 15.5087 30.3113 16.4962L21.5413 25.2661C21.3447 25.4627 21.1647 25.6714 21.0002 25.8897C20.8356 25.6713 20.6555 25.4627 20.459 25.266L11.6891 16.4961C10.7018 15.5087 9.26827 15.2327 8.03131 15.6679V6.71633C8.03131 5.76007 7.65412 4.86585 6.96919 4.19842C6.28442 3.53107 5.37957 3.17763 4.42362 3.20185C2.53587 3.25052 1 4.85069 1 6.76915V19.9114C1 21.1103 1.33907 22.2793 1.98048 23.2919L8.44014 33.4906C9.03319 34.4269 9.34671 35.5077 9.34671 36.616V39.828C9.34671 40.4752 9.8714 40.9999 10.5186 40.9999H31.4819C32.1291 40.9999 32.6538 40.4752 32.6538 39.828V36.616C32.6538 35.5077 32.9672 34.4269 33.5603 33.4907L40.0199 23.292C40.6613 22.2793 41.0003 21.1103 41.0003 19.9114V6.71633C41.0003 5.76015 40.6231 4.86593 39.9382 4.19842ZM10.4202 32.2365L3.96049 22.0378C3.55697 21.4008 3.34377 20.6655 3.34377 19.9114V6.76915C3.34377 6.11031 3.85526 5.56109 4.48401 5.54492C4.80323 5.53718 5.10527 5.6546 5.33347 5.87695C5.56176 6.09945 5.68754 6.39758 5.68754 6.71633V19.0211C5.68754 19.0537 5.6898 19.0857 5.69238 19.1175C5.72504 19.9721 6.06621 20.817 6.71723 21.468L10.9917 25.7425C11.4493 26.2002 12.1913 26.2002 12.649 25.7425C13.1067 25.2848 13.1067 24.5429 12.649 24.0852L8.37451 19.8107C7.91763 19.3538 7.91763 18.6103 8.37451 18.1535C8.83155 17.6966 9.57491 17.6966 10.0319 18.1535L18.8016 26.9232C19.4637 27.5854 19.8283 28.4692 19.8283 29.4118V38.6561H11.6904V36.616C11.6904 35.063 11.2512 33.5486 10.4202 32.2365ZM38.6566 19.9114C38.6566 20.6655 38.4433 21.4008 38.0397 22.0378L31.5802 32.2365C30.7491 33.5485 30.3099 35.063 30.3099 36.616V38.6561H22.172V29.4118C22.172 28.4692 22.5367 27.5854 23.1986 26.9233L31.9685 18.1534C32.4256 17.6965 33.1689 17.6965 33.6258 18.1534C34.0805 18.5899 34.0805 19.3744 33.6255 19.811L29.3513 24.088C28.8939 24.5458 28.8941 25.2877 29.3519 25.7452C29.8095 26.2027 30.5515 26.2026 31.0092 25.7447L35.2831 21.468C35.9293 20.8218 36.2919 19.9682 36.311 19.0574C36.3114 19.0453 36.3128 19.0334 36.3128 19.0211V6.76915C36.3128 6.11031 36.8243 5.56109 37.453 5.54492C37.7706 5.53624 38.0742 5.6546 38.3025 5.87695C38.5308 6.09953 38.6566 6.39766 38.6566 6.71641V19.9114Z" fill="currentColor" stroke="currentColor"/>
        <path d="M12.8338 11.3305C12.8839 11.3849 13.0564 11.5549 16.3399 14.7566C18.0524 16.4266 19.992 18.3179 20.1482 18.4754C20.3689 18.705 20.6738 18.8352 20.993 18.8352C21.3166 18.8353 21.6257 18.7014 21.8471 18.4659C22.0141 18.2939 23.8073 16.5484 25.3903 15.0074C28.1619 12.3094 29.0425 11.4503 29.1527 11.3307C29.1781 11.3033 29.2019 11.2748 29.2241 11.2455C33.0122 6.43712 29.5623 1.03856 24.6727 1.01536C23.3457 1.03583 22.087 1.49146 20.9811 2.34349C18.1334 0.188477 15.0002 0.887779 13.146 2.60232C10.6446 4.88742 10.5206 8.70386 12.7995 11.2916C12.8107 11.3048 12.8221 11.3178 12.8338 11.3305ZM14.7373 4.32312C15.9306 3.21944 18.0698 2.66568 20.1703 4.73711C20.3931 4.95672 20.6956 5.07789 21.0071 5.07445C21.3199 5.0707 21.6182 4.94211 21.8356 4.71726C23.1364 3.37194 25.3851 2.67279 27.2487 4.31617C28.4665 5.39016 29.2331 7.45752 27.4089 9.7627C27.1145 10.0582 25.2589 11.8646 23.7554 13.3281C22.4286 14.6197 21.5514 15.474 20.9918 16.0206C20.1937 15.2394 15.165 10.3402 14.5622 9.7459C13.3699 8.30253 12.9199 6.00384 14.7373 4.32312Z" fill="currentColor" stroke="currentColor"/>
    </symbol>

</svg>