<svg xmlns="http://www.w3.org/2000/svg" width="13" height="10" fill="none"><path fill="#fff" fill-rule="evenodd" d="M3.88 10c4.525 0 7-3.848 7-7.184 0-.11 0-.218-.007-.327.481-.357.897-.8 1.227-1.307a4.803 4.803 0 0 1-1.412.397A2.526 2.526 0 0 0 11.768.183a4.855 4.855 0 0 1-1.562.613 2.419 2.419 0 0 0-3.482-.11A2.57 2.57 0 0 0 6.014 3.1 6.93 6.93 0 0 1 .943.461c-.653 1.154-.319 2.63.762 3.37a2.394 2.394 0 0 1-1.117-.315v.032c0 1.201.826 2.236 1.974 2.474a2.387 2.387 0 0 1-1.11.043C1.772 7.095 2.696 7.8 3.75 7.82A4.856 4.856 0 0 1 .108 8.866 6.838 6.838 0 0 0 3.88 9.998" clip-rule="evenodd"/></svg>