<svg xmlns="http://www.w3.org/2000/svg" width="34" height="40" fill="none"><path fill="#4640DE" d="M3 40V25H0V14c0-1.1.392-2.042 1.175-2.825C1.958 10.392 2.9 10 4 10h6c1.1 0 2.042.392 2.825 1.175C13.608 11.958 14 12.9 14 14v11h-3v15H3ZM7 8c-1.1 0-2.042-.392-2.825-1.175C3.392 6.042 3 5.1 3 4s.392-2.042 1.175-2.825C4.958.392 5.9 0 7 0s2.042.392 2.825 1.175C10.608 1.958 11 2.9 11 4s-.392 2.042-1.175 2.825C9.042 7.608 8.1 8 7 8Zm15 32V28h-6l5.1-15.3c.267-.867.758-1.533 1.475-2 .717-.467 1.525-.7 2.425-.7.9 0 1.708.233 2.425.7.717.467 1.208 1.133 1.475 2L34 28h-6v12h-6Zm3-32c-1.1 0-2.042-.392-2.825-1.175C21.392 6.042 21 5.1 21 4s.392-2.042 1.175-2.825C22.958.392 23.9 0 25 0s2.042.392 2.825 1.175C28.608 1.958 29 2.9 29 4s-.392 2.042-1.175 2.825C27.042 7.608 26.1 8 25 8Z"/></svg>