<svg xmlns="http://www.w3.org/2000/svg" width="44" height="32" fill="none"><path fill="#4640DE" d="M6 6c0-1.667.583-3.083 1.75-4.25C8.917.583 10.333 0 12 0h20c1.667 0 3.083.583 4.25 1.75C37.417 2.917 38 4.333 38 6v4c1.667 0 3.083.583 4.25 1.75C43.417 12.917 44 14.333 44 16v10c0 1.667-.583 3.083-1.75 4.25C41.083 31.417 39.667 32 38 32H6c-1.667 0-3.083-.583-4.25-1.75C.583 29.083 0 27.667 0 26V16c0-1.667.583-3.083 1.75-4.25C2.917 10.583 4.333 10 6 10V6Zm4 0v5.6a6.921 6.921 0 0 1 1.45 1.95c.367.733.55 1.55.55 2.45v4h20v-4c0-.9.183-1.717.55-2.45A6.921 6.921 0 0 1 34 11.6V6c0-.567-.192-1.042-.575-1.425C33.042 4.192 32.567 4 32 4H12c-.567 0-1.042.192-1.425.575C10.192 4.958 10 5.433 10 6Zm26 18H8v-8c0-.267-.05-.525-.15-.775-.1-.25-.242-.467-.425-.65a1.913 1.913 0 0 0-.65-.425c-.25-.1-.508-.15-.775-.15-.567 0-1.042.192-1.425.575C4.192 14.958 4 15.433 4 16v10c0 .567.192 1.042.575 1.425.383.383.858.575 1.425.575h32c.567 0 1.042-.192 1.425-.575.383-.383.575-.858.575-1.425V16c0-.567-.192-1.042-.575-1.425C39.042 14.192 38.567 14 38 14c-.267 0-.525.05-.775.15-.25.1-.467.242-.65.425s-.325.4-.425.65c-.1.25-.15.508-.15.775v8Z"/></svg>