<svg xmlns="http://www.w3.org/2000/svg" width="48" height="48" fill="none"><mask id="a" width="48" height="48" x="0" y="0" maskUnits="userSpaceOnUse" style="mask-type:alpha"><path fill="#D9D9D9" d="M0 0h48v48H0z"/></mask><g mask="url(#a)"><path fill="#4640DE" d="M24 42c-1.4 0-2.583-.483-3.55-1.45C19.483 39.583 19 38.4 19 37s.483-2.583 1.45-3.55C21.417 32.483 22.6 32 24 32s2.583.483 3.55 1.45C28.517 34.417 29 35.6 29 37s-.483 2.583-1.45 3.55C26.583 41.517 25.4 42 24 42ZM12.7 30.7l-4.2-4.3c1.967-1.967 4.275-3.525 6.925-4.675C18.075 20.575 20.933 20 24 20c3.067 0 5.925.583 8.575 1.75 2.65 1.167 4.958 2.75 6.925 4.75l-4.2 4.2a16.224 16.224 0 0 0-5.1-3.45c-1.933-.833-4-1.25-6.2-1.25s-4.267.417-6.2 1.25a16.224 16.224 0 0 0-5.1 3.45Zm-8.5-8.5L0 18c3.067-3.133 6.65-5.583 10.75-7.35C14.85 8.883 19.267 8 24 8c4.733 0 9.15.883 13.25 2.65S44.933 14.867 48 18l-4.2 4.2a28.218 28.218 0 0 0-8.925-6.025C31.492 14.725 27.867 14 24 14s-7.492.725-10.875 2.175A28.217 28.217 0 0 0 4.2 22.2Z"/></g></svg>