<svg width="1440" height="446" viewBox="0 0 1440 446" fill="none" xmlns="http://www.w3.org/2000/svg">
<path opacity="0.7" d="M1877.1 598.091L1361.56 850.322L1361.34 542.082L1877.1 288.053L1877.1 598.091Z" stroke="#CCCCF5" stroke-width="4"/>
<path d="M2050.81 40.1827L1359.57 377.327L1359.31 69.2216L1928.34 -210.919L2050.81 40.1827Z" stroke="#CCCCF5" stroke-width="4"/>
<path d="M1717.1 368.09L1201.57 620.322L1201.34 272.083L1717.1 18.0533L1717.1 368.09Z" stroke="#CCCCF5" stroke-width="4"/>
<path d="M1448.1 695.091L932.565 947.322L932.342 639.082L1448.1 385.053L1448.1 695.091Z" stroke="#CCCCF5" stroke-width="4"/>
<path d="M72.1028 267.251L-443.435 519.483L-443.66 171.244L72.102 -82.786L72.1028 267.251Z" stroke="#CCCCF5" stroke-width="4"/>
<path d="M175.814 45.3434L-515.434 382.488L-515.692 74.3823L53.3433 -205.758L175.814 45.3434Z" stroke="#CCCCF5" stroke-width="4"/>
</svg>
